<svg width="111" height="106" viewBox="0 0 111 106" fill="none" xmlns="http://www.w3.org/2000/svg">
<g clip-path="url(#clip0_1369_6127)">
<path d="M53.9913 55.8898C59.5019 55.8898 64.2909 53.9845 68.1615 50.2373C72.0321 46.4902 74.0002 41.8539 74.0002 36.519C74.0002 31.184 72.0321 26.5477 68.1615 22.8006C64.2909 19.0534 59.5019 17.1481 53.9913 17.1481C48.4806 17.1481 43.7572 19.0534 39.8211 22.8006C35.9505 26.6112 33.9824 31.184 33.9824 36.519C33.9824 41.8539 35.9505 46.4902 39.8211 50.2373C43.7572 53.9845 48.4806 55.8898 53.9913 55.8898ZM45.1349 27.945C47.5622 25.5315 50.5143 24.3883 53.9913 24.3883C57.4682 24.3883 60.4204 25.5315 62.8477 27.945C65.3406 30.3584 66.5214 33.1529 66.5214 36.519C66.5214 39.885 65.3406 42.743 62.9133 45.1565C60.4204 47.5064 57.4682 48.7131 53.9913 48.7131C50.5143 48.7131 47.5622 47.5699 45.1349 45.1565C42.7076 42.743 41.4611 39.885 41.4611 36.519C41.4611 33.1529 42.642 30.2949 45.1349 27.945Z" fill="#E83431"/>
<path d="M87.9735 75.8323C87.8423 74.308 87.6455 72.7202 87.3175 70.9419C86.9895 69.1636 86.5959 67.5123 86.071 66.0516C85.5462 64.4638 84.8246 62.876 83.9061 61.3517C82.9877 59.764 81.8725 58.3667 80.626 57.2235C79.3139 56.0168 77.6739 55.0006 75.7714 54.302C73.9345 53.6034 71.8352 53.2223 69.6703 53.2223C68.4239 53.2223 67.3742 53.7304 65.8654 54.6831L62.7164 56.5884C61.798 57.16 60.5515 57.6681 58.9771 58.1762C55.9593 59.1289 52.9416 59.1289 49.9239 58.1762C48.415 57.6681 47.1686 57.16 46.2501 56.5884L43.1012 54.6196C41.5923 53.6669 40.5427 53.1588 39.2962 53.1588C37.1313 53.1588 35.032 53.5399 33.1951 54.2385C31.2927 54.9371 29.6526 55.9533 28.3405 57.16C27.0941 58.3032 25.9788 59.7005 25.0604 61.2882C24.142 62.876 23.4203 64.4638 22.8955 66.0516C22.3707 67.5758 21.9771 69.2271 21.649 70.9419C21.321 72.6567 21.1242 74.308 20.993 75.8323C20.8618 77.293 20.8618 78.8173 20.8618 80.3416C20.8618 84.6603 22.3051 88.1534 25.126 90.7574C27.8813 93.2978 31.5551 94.6316 35.9505 94.6316H73.0817C77.4771 94.6316 81.0852 93.3613 83.9061 90.7574C86.7271 88.1534 88.1703 84.6603 88.1703 80.3416C88.1047 78.8173 88.0391 77.293 87.9735 75.8323ZM80.626 80.3416C80.626 82.628 80.0356 84.2792 78.6579 85.486C77.2803 86.7562 75.4434 87.3278 73.0161 87.3278H35.9505C33.5232 87.3278 31.6207 86.6927 30.3086 85.486C28.9966 84.2792 28.3405 82.5644 28.3405 80.3416C28.3405 79.0078 28.4061 77.6106 28.4717 76.3404C28.5373 75.0701 28.7342 73.7364 28.9966 72.2757C29.259 70.8149 29.587 69.4812 29.9806 68.2745C30.3742 67.1313 30.8334 66.0516 31.4895 64.9719C32.1455 63.8922 32.8015 63.0665 33.5232 62.4314C34.1136 61.7963 34.9664 61.3517 35.9505 60.9707C36.7377 60.6531 37.6561 60.4626 38.5746 60.3991C38.7058 60.4626 38.837 60.5896 39.0338 60.7166L42.2483 62.6855C43.6916 63.5746 45.5285 64.4003 47.6934 65.0354C52.22 66.4326 56.8122 66.4326 61.3388 65.0354C63.5037 64.3368 65.3405 63.5746 66.7838 62.6855C68.0303 61.9233 69.0143 61.2882 69.9983 60.7166C70.1952 60.5896 70.3264 60.5261 70.4576 60.4626C71.4416 60.5261 72.2944 60.7166 73.0817 61.0342C74.0657 61.4153 74.853 61.9233 75.509 62.4949C76.2306 63.1936 76.8866 64.0192 77.4771 64.9719C78.1331 66.0516 78.5923 67.1948 78.9859 68.2745C79.3795 69.4812 79.7076 70.8149 79.97 72.2757C80.2324 73.7364 80.4292 75.1336 80.4948 76.4039C80.5604 77.6106 80.626 78.9443 80.626 80.3416Z" fill="#E83431"/>
<path d="M77.6082 102.189H33.3919C17.1224 102.189 3.87061 89.4236 3.87061 73.6094V32.3272C3.87061 16.5764 17.0568 3.74719 33.3919 3.74719H77.5426C93.8121 3.74719 107.064 16.5129 107.064 32.3272V73.6094C107.064 89.4236 93.8777 102.189 77.6082 102.189Z" stroke="#6D6E6E" stroke-width="6" stroke-miterlimit="10"/>
<path d="M78.9858 102.189V3.87427" stroke="#6D6E6E" stroke-width="6" stroke-miterlimit="10"/>
<path d="M30.7678 102.189V3.81067" stroke="#6D6E6E" stroke-width="6" stroke-miterlimit="10"/>
</g>
<defs>
<clipPath id="clip0_1369_6127">
<rect width="111" height="106" fill="white"/>
</clipPath>
</defs>
</svg>
